<svg xmlns="http://www.w3.org/2000/svg" viewBox="0 0 24 24" width="24" height="24">
  <path fill="#FF2D20" d="M21.572 6.575a.965.965 0 00-.472-.375L12.56.04a.97.97 0 00-.786 0L3.234 6.2a.965.965 0 00-.472.375L0 12.355l2.762 5.78a.965.965 0 00.472.375l8.54 6.16a.97.97 0 00.786 0l8.54-6.16a.965.965 0 00.472-.375L24 12.355l-2.428-5.78zm-9.405 15.54L4.54 16.54l6.095-3.87 6.095 3.87-4.563 5.575zM3.473 15.115l-1.92-4.01 6.02-3.82 4.417 2.805-8.517 5.025zm17.054 0l-8.517-5.025 4.417-2.805 6.02 3.82-1.92 4.01zM12.167 1.885l7.293 5.26-6.046 3.84-6.046-3.84 7.293-5.26h-.494z"/>
</svg>
